# xmcd
#
# Track frame offsets: 
#        150
#        15418
#        29593
#        44934
#        61729
#        79696
#        95311
#        106966
#        121432
#        134110
#        155605
#        172006
#        184759
#        199486
#        213854
#
# Disc length: 3034 seconds
#
# Revision: 1
# Processed by: cddbd v1.5.2PL0 Copyright (c) Steve Scherf et al.
# Submitted via: ExactAudioCopy v0.95b4
#
DISCID=d80bd80f
DTITLE=Jean François Michaël - Adieu jolie Candy
DYEAR=2003
DGENRE=French
TTITLE0=Adieu jolie Candy
TTITLE1=Je veux vivre auprès de toi
TTITLE2=Comme j'ai toujours envie d'aimer
TTITLE3=L'amour
TTITLE4=Pars pas
TTITLE5=Si l'amour existe encore
TTITLE6=Toi
TTITLE7=Adios Querina Luna
TTITLE8=Chouans en avant
TTITLE9=La vie continue
TTITLE10=Rappelle-toi Candy
TTITLE11=Coupable
TTITLE12=Je pense à toi
TTITLE13=Elle et moi
TTITLE14=Du fond du coeur
EXTD=
EXTT0=
EXTT1=
EXTT2=
EXTT3=
EXTT4=
EXTT5=
EXTT6=
EXTT7=
EXTT8=
EXTT9=
EXTT10=
EXTT11=
EXTT12=
EXTT13=
EXTT14=
PLAYORDER=
